<?xml version="1.0" encoding="utf-8"?>
<!-- Generator: Adobe Illustrator 19.0.0, SVG Export Plug-In . SVG Version: 6.00 Build 0)  -->
<svg version="1.1" id="Layer_1" xmlns="http://www.w3.org/2000/svg" xmlns:xlink="http://www.w3.org/1999/xlink" x="0px" y="0px"
	 viewBox="-434 236.2 89.8 89.8" style="enable-background:new -434 236.2 89.8 89.8;" xml:space="preserve">
<g>
	<path d="M-375.7,260.1h-26.8c-4.3,0-7.7,3.5-7.7,7.7v26.8c0,4.3,3.5,7.7,7.7,7.7h26.8c4.3,0,7.7-3.5,7.7-7.7v-26.8
		C-368,263.6-371.5,260.1-375.7,260.1z M-389.1,295.1c-7.7,0-13.9-6.2-13.9-13.9c0-7.7,6.2-13.9,13.9-13.9c7.7,0,13.9,6.2,13.9,13.9
		S-381.5,295.1-389.1,295.1z M-374.8,270.2c-1.8,0-3.3-1.5-3.3-3.3s1.5-3.3,3.3-3.3c1.8,0,3.3,1.5,3.3,3.3S-373,270.2-374.8,270.2z"
		/>
	<path d="M-389.1,273.2c-4.4,0-8,3.6-8,8c0,4.4,3.6,8,8,8c4.4,0,8-3.6,8-8C-381.1,276.8-384.7,273.2-389.1,273.2z"/>
	<path d="M-389.1,236.2c-24.8,0-44.9,20.1-44.9,44.9s20.1,44.9,44.9,44.9s44.9-20.1,44.9-44.9S-364.3,236.2-389.1,236.2z
		 M-362.1,294.6c0,7.5-6.1,13.6-13.6,13.6h-26.8c-7.5,0-13.6-6.1-13.6-13.6v-26.8c0-7.5,6.1-13.6,13.6-13.6h26.8
		c7.5,0,13.6,6.1,13.6,13.6V294.6z"/>
</g>
</svg>
